<?xml version="1.0" encoding="utf-8"?>
<!-- Generator: Adobe Illustrator 17.0.0, SVG Export Plug-In . SVG Version: 6.00 Build 0)  -->
<!DOCTYPE svg PUBLIC "-//W3C//DTD SVG 1.1//EN" "http://www.w3.org/Graphics/SVG/1.1/DTD/svg11.dtd">
<svg version="1.1" id="Flag_of_the_United_Kingdom" xmlns="http://www.w3.org/2000/svg" xmlns:xlink="http://www.w3.org/1999/xlink"
	 x="0px" y="0px" width="900px" height="600px" viewBox="-1404 0 900 600" enable-background="new -1404 0 900 600"
	 xml:space="preserve">
<g>
	<polygon fill="#00247D" points="-1062.211,182.918 -1062.211,0 -1404,0 -1404,12.023 	"/>
	<polygon fill="#00247D" points="-504,200 -504,137.977 -628.047,200 	"/>
	<polygon fill="#00247D" points="-504,462.023 -504,400 -628.047,400 	"/>
	<polygon fill="#00247D" points="-1404,146.187 -1404,200 -1296.375,200 	"/>
	<polygon fill="#00247D" points="-862.211,417.082 -862.211,600 -504,600 -504,596.187 	"/>
	<polygon fill="#00247D" points="-1404,400 -1404,453.813 -1296.375,400 	"/>
	<polygon fill="#00247D" points="-504,3.813 -504,0 -862.211,0 -862.211,182.918 	"/>
	<polygon fill="#00247D" points="-1404,587.977 -1404,600 -1062.211,600 -1062.211,417.082 	"/>
	<polygon fill="#B23532" points="-1072.768,200 -1404,34.384 -1404,79.105 -1162.211,200 	"/>
	<polygon fill="#B23532" points="-762.211,400 -851.653,400 -504,573.827 -504,529.105 	"/>
	<polygon fill="#B23532" points="-1251.653,400 -1404,476.173 -1404,520.895 -1162.211,400 	"/>
	<polygon fill="#B23532" points="-672.768,200 -504,115.616 -504,70.895 -762.211,200 	"/>
	<polygon fill="#FFFFFF" points="-1062.211,417.082 -1028.047,400 -1062.211,400 	"/>
	<polygon fill="#FFFFFF" points="-896.375,200 -902.211,200 -902.211,202.918 	"/>
	<polygon fill="#FFFFFF" points="-1022.211,200 -1028.047,200 -1022.211,202.918 	"/>
	<polygon fill="#FFFFFF" points="-1022.21,0 -1062.21,0 -1062.21,182.918 -1404,12.023 -1404,34.384 -1072.768,200 -1162.21,200 
		-1404,79.105 -1404,146.187 -1296.375,200 -1404,200 -1404,240 -1216.375,240 -1082.211,240 -1062.21,240 -1022.21,240 
		-1022.21,225.279 -1022.21,202.918 -1028.046,200 -1022.21,200 	"/>
	<polygon fill="#FFFFFF" points="-504,360 -708.047,360 -842.211,360 -862.21,360 -902.21,360 -902.21,374.721 -902.21,397.082 
		-896.375,400 -902.21,397.082 -902.21,400 -902.21,400 -902.21,600 -862.21,600 -862.21,417.082 -504,596.187 -504,573.827 
		-851.653,400 -762.211,400 -504,529.105 -504,462.023 -628.047,400 -504,400 	"/>
	<polygon fill="#FFFFFF" points="-504,3.813 -862.21,182.918 -862.21,0 -902.21,0 -902.21,200 -896.375,200 -902.21,202.918 
		-902.21,240 -862.21,240 -842.211,240 -752.768,240 -708.047,240 -504,240 -504,200 -628.047,200 -504,137.977 -504,115.616 
		-672.768,200 -762.211,200 -504,70.895 	"/>
	<polygon fill="#FFFFFF" points="-1022.21,397.082 -1022.21,360 -1062.21,360 -1082.211,360 -1171.653,360 -1216.375,360 -1404,360 
		-1404,400 -1296.375,400 -1404,453.813 -1404,476.173 -1251.653,400 -1162.21,400 -1404,520.895 -1404,587.977 -1062.21,417.082 
		-1062.21,600 -1022.21,600 -1022.21,400 -1022.21,400 -1022.21,397.082 	"/>
	<polyline fill="#B23532" points="-862.21,350 -842.211,360 -708.047,360 -504,360 -504,300 -504,240 -708.047,240 -752.768,240 
		-842.211,240 -862.21,250 -862.21,250 -842.211,240 -862.21,240 -902.21,240 -902.21,202.918 -902.21,200 -902.21,0 -1022.21,0 
		-1022.21,200 -1022.21,202.918 -1022.21,225.279 -1022.21,240 -1062.21,240 -1082.211,240 -1216.375,240 -1404,240 -1404,300 
		-1404,360 -1216.375,360 -1171.653,360 -1082.211,360 -1062.21,360 -1022.21,360 -1022.21,397.082 -1022.21,400 -1022.21,600 
		-902.21,600 -902.21,400 -902.21,397.082 -902.21,374.721 -902.21,360 -862.21,360 -842.211,360 	"/>
</g>
</svg>
